<?xml version="1.0" encoding="utf-8"?>
<!-- Generator: Adobe Illustrator 19.0.0, SVG Export Plug-In . SVG Version: 6.00 Build 0)  -->
<svg version="1.1" id="Layer_1" xmlns="http://www.w3.org/2000/svg" xmlns:xlink="http://www.w3.org/1999/xlink" x="0px" y="0px"
	 viewBox="-551 267 96 96" style="enable-background:new -551 267 96 96;" xml:space="preserve">
<style type="text/css">
	.st0{fill:#FFFFFF;}
</style>
<path class="st0" d="M-503,267c-26.5,0-48,21.5-48,48s21.5,48,48,48s48-21.5,48-48S-476.5,267-503,267z M-503,275
	c22.3,0,40,17.7,40,40s-17.7,40-40,40s-40-17.7-40-40S-525.3,275-503,275z M-524.6,299c-2,0-3.5,0.8-4.8,2s-1.6,2.4-1.6,4
	s0.8,3.2,2,4.8c0.8,1.6,2.4,3.2,4.4,5.2c1.6,1.6,3.6,3.2,5.6,4.8c2.4-1.6,4-3.2,5.6-4.4c2-1.6,3.2-3.5,4.4-5.1c1.2-2,2-4,2-5.6
	c0-1.2-0.8-2.4-2-3.6s-2.8-2-4.4-2c-2.8,0-4.4,2-5.6,4C-520.2,301-521.8,299-524.6,299z M-492.6,299c-2,0-3.5,0.8-4.8,2
	s-1.6,2.4-1.6,4s0.8,3.2,2,5.2c0.8,1.6,2.4,3.1,4.4,5.1c1.6,1.6,3.6,3.3,5.6,4.9c2.4-2,4-3.7,5.6-4.9c2-1.6,3.2-3.5,4.4-5.1
	c1.2-2,2-4,2-5.6c0-1.2-0.8-2.4-2-3.6s-2.8-2-4.4-2c-2.8,0-4.4,2-5.6,4C-488.2,301-489.8,299-492.6,299z M-519.8,326.4l-6.5,4.5
	c5.1,7.4,13.6,12.1,23.2,12.1s18.1-4.7,23.2-12.1l-6.5-4.5c-3.7,5.4-9.6,8.6-16.8,8.6S-516.1,331.7-519.8,326.4z M-546.4,345.4
	c-0.5-0.1-1,0.1-1.3,0.4s-0.5,0.6-0.5,1s0.1,0.9,0.4,1.3c0.2,0.5,0.6,0.9,1,1.5c0.4,0.5,0.9,1,1.4,1.4c0.7-0.4,1.2-0.7,1.6-1
	c0.6-0.4,1-0.9,1.3-1.3c0.4-0.5,0.6-1,0.7-1.5c0-0.3-0.1-0.7-0.4-1c-0.3-0.4-0.7-0.6-1.1-0.7c-0.8-0.1-1.2,0.4-1.6,0.9
	C-545.3,346.1-545.6,345.5-546.4,345.4z M-541.2,353.7c-0.5,0.1-0.9,0.4-1.1,0.8c-0.3,0.4-0.3,0.7-0.2,1.2c0.1,0.4,0.4,0.8,0.8,1.1
	c0.3,0.4,0.8,0.7,1.5,1.1c0.5,0.3,1.1,0.6,1.8,0.9c0.5-0.6,0.9-1.1,1.2-1.5c0.4-0.5,0.6-1.1,0.9-1.6c0.2-0.6,0.3-1.2,0.2-1.6
	c-0.1-0.3-0.3-0.6-0.7-0.8c-0.4-0.3-0.8-0.4-1.3-0.3c-0.7,0.2-1.1,0.8-1.3,1.4C-539.9,354-540.4,353.6-541.2,353.7z M-469.6,354.2
	c-0.5,0.1-0.9,0.3-1.2,0.7c-0.3,0.4-0.4,0.7-0.3,1.1c0,0.4,0.3,0.8,0.7,1.2c0.3,0.4,0.7,0.8,1.3,1.3c0.5,0.4,1.1,0.7,1.6,1.1
	c0.6-0.5,1-1,1.4-1.3c0.5-0.5,0.8-1,1-1.5c0.3-0.6,0.4-1.1,0.4-1.6c0-0.3-0.3-0.6-0.6-0.9s-0.8-0.5-1.2-0.4
	c-0.8,0.1-1.1,0.7-1.4,1.2C-468.4,354.7-468.9,354.2-469.6,354.2z M-461.5,346.5c-0.5-0.2-1-0.2-1.4,0s-0.7,0.4-0.8,0.8
	c-0.2,0.4-0.1,0.9,0,1.4c0,0.5,0.2,1.1,0.5,1.8c0.2,0.6,0.6,1.2,0.9,1.8c0.8-0.1,1.3-0.4,1.9-0.5c0.7-0.2,1.2-0.5,1.6-0.8
	c0.5-0.4,0.9-0.8,1.1-1.2c0.1-0.3,0.1-0.7-0.1-1.1s-0.5-0.8-0.9-1c-0.7-0.3-1.3,0-1.8,0.4C-460.6,347.4-460.8,346.8-461.5,346.5z
	 M-472.5,271c-0.5,0.1-0.9,0.4-1.1,0.8c-0.3,0.4-0.3,0.7-0.2,1.2c0.1,0.4,0.4,0.8,0.8,1.1c0.3,0.4,0.8,0.7,1.5,1.1
	c0.5,0.3,1.1,0.6,1.8,0.9c0.5-0.6,0.9-1.1,1.2-1.5c0.4-0.5,0.6-1.1,0.9-1.6c0.2-0.6,0.3-1.2,0.2-1.6c-0.1-0.3-0.3-0.6-0.7-0.8
	c-0.4-0.3-0.8-0.4-1.3-0.3c-0.7,0.2-1.1,0.8-1.3,1.4C-471.2,271.3-471.7,270.8-472.5,271z M-462.9,276.3c-0.5,0-1,0.1-1.3,0.4
	c-0.4,0.3-0.5,0.6-0.5,1s0.1,0.9,0.4,1.3c0.2,0.4,0.6,0.9,1.1,1.5c0.4,0.5,0.9,0.9,1.4,1.4c0.7-0.4,1.2-0.8,1.6-1
	c0.6-0.4,0.9-0.9,1.3-1.3c0.4-0.5,0.6-1,0.7-1.5c0-0.3-0.2-0.7-0.5-1c-0.3-0.4-0.7-0.6-1.1-0.6c-0.8-0.1-1.2,0.4-1.6,0.9
	C-461.7,277-462.1,276.4-462.9,276.3z M-539.9,271c-0.5,0.1-0.9,0.4-1.1,0.8c-0.2,0.4-0.3,0.7-0.2,1.2c0.1,0.4,0.4,0.8,0.8,1.1
	c0.3,0.4,0.8,0.7,1.5,1.1c0.5,0.3,1.1,0.6,1.8,0.9c0.5-0.6,0.9-1.1,1.2-1.5c0.4-0.5,0.6-1.1,0.8-1.6c0.2-0.6,0.3-1.2,0.2-1.6
	c-0.1-0.3-0.4-0.6-0.7-0.8s-0.9-0.4-1.3-0.3c-0.7,0.2-1,0.8-1.2,1.4C-538.6,271.3-539.2,270.9-539.9,271z M-546.8,278
	c-0.5,0-1,0.2-1.3,0.5s-0.5,0.6-0.5,1.1c0,0.4,0.2,0.9,0.5,1.3c0.2,0.4,0.6,0.9,1.1,1.5c0.4,0.5,0.9,0.9,1.5,1.4
	c0.7-0.4,1.1-0.8,1.6-1.1c0.6-0.4,0.9-0.9,1.3-1.3c0.4-0.5,0.6-1.1,0.6-1.5c0-0.3-0.2-0.7-0.5-1s-0.7-0.6-1.2-0.6
	c-0.8,0-1.2,0.5-1.6,1C-545.6,278.6-546.1,278-546.8,278z"/>
</svg>
