<svg xmlns="http://www.w3.org/2000/svg" xmlns:xlink="http://www.w3.org/1999/xlink" viewBox="0 0 24 24" version="1.1" width="96" height="96" style="fill: rgb(255, 255, 255);">
<g id="surface1">
<path style=" " d="M 12 0 C 6.464844 0 2 4.464844 2 10 L 0 10 L 0 12 L 2.09375 12 C 2.269531 14.152344 2.71875 15.914063 3.5 17.25 C 4.335938 18.683594 5.605469 19.625 7.0625 19.90625 C 7.472656 22.265625 9.503906 24 12 24 C 14.496094 24 16.527344 22.265625 16.9375 19.90625 C 18.394531 19.625 19.664063 18.683594 20.5 17.25 C 21.28125 15.914063 21.730469 14.152344 21.90625 12 L 24 12 L 24 10 L 22 10 C 22 4.464844 17.535156 0 12 0 Z M 12 2 C 16.464844 2 20 5.535156 20 10 C 20 12.890625 19.488281 14.984375 18.75 16.25 C 18.210938 17.171875 17.609375 17.667969 16.875 17.875 C 16.378906 15.628906 14.414063 14 12 14 C 9.585938 14 7.621094 15.628906 7.125 17.875 C 6.390625 17.667969 5.789063 17.171875 5.25 16.25 C 4.511719 14.984375 4 12.890625 4 10 C 4 5.535156 7.535156 2 12 2 Z M 8.6875 7.09375 C 6.789063 7.09375 5.789063 8.289063 5.6875 10.1875 C 5.6875 11.6875 6.207031 13 7.90625 13 C 9.804688 13 10.90625 11.292969 10.90625 9.59375 C 10.90625 8.09375 10.289063 7.09375 8.6875 7.09375 Z M 15.40625 7.09375 C 14.007813 7.09375 13 8.511719 13 9.8125 C 13 11.613281 14.3125 12.90625 16.3125 12.90625 C 17.113281 12.90625 18.1875 12.210938 18.1875 9.8125 C 18.1875 8.210938 17.007813 7.09375 15.40625 7.09375 Z M 12 15 C 12.601563 15 13 15.398438 13 16 C 13 16.601563 12.601563 17 12 17 C 11.398438 17 11 16.601563 11 16 C 11 15.398438 11.398438 15 12 15 Z M 9.5 16.5 C 9.632813 16.511719 9.78125 16.542969 9.90625 16.59375 C 10.40625 16.894531 10.511719 17.5 10.3125 18 C 10.011719 18.5 9.40625 18.605469 8.90625 18.40625 C 8.40625 18.105469 8.300781 17.5 8.5 17 C 8.726563 16.625 9.105469 16.46875 9.5 16.5 Z M 14.5 16.5 C 14.894531 16.46875 15.273438 16.625 15.5 17 C 15.800781 17.5 15.59375 18.105469 15.09375 18.40625 C 14.59375 18.707031 13.988281 18.5 13.6875 18 C 13.386719 17.5 13.59375 16.894531 14.09375 16.59375 C 14.21875 16.542969 14.367188 16.511719 14.5 16.5 Z M 9.28125 19.5 C 9.675781 19.46875 10.085938 19.625 10.3125 20 C 10.613281 20.5 10.40625 21.105469 9.90625 21.40625 C 9.40625 21.707031 8.800781 21.5 8.5 21 C 8.199219 20.5 8.40625 19.894531 8.90625 19.59375 C 9.03125 19.542969 9.148438 19.511719 9.28125 19.5 Z M 14.71875 19.5 C 14.851563 19.511719 14.96875 19.542969 15.09375 19.59375 C 15.59375 19.894531 15.699219 20.5 15.5 21 C 15.199219 21.5 14.59375 21.605469 14.09375 21.40625 C 13.59375 21.105469 13.488281 20.5 13.6875 20 C 13.914063 19.625 14.324219 19.46875 14.71875 19.5 Z M 12 21 C 12.601563 21 13 21.398438 13 22 C 13 22.601563 12.601563 23 12 23 C 11.398438 23 11 22.601563 11 22 C 11 21.398438 11.398438 21 12 21 Z "/>
</g>
</svg>