<svg xmlns="http://www.w3.org/2000/svg" xmlns:xlink="http://www.w3.org/1999/xlink" viewBox="0 0 24 24" version="1.1" width="96" height="96" style="fill: rgb(255, 255, 255);">
<g id="surface1">
<path style=" " d="M 12 0 C 5.363281 0 0 5.363281 0 12 C 0 18.636719 5.363281 24 12 24 C 18.636719 24 24 18.636719 24 12 C 24 5.363281 18.636719 0 12 0 Z M 12 2 C 17.566406 2 22 6.433594 22 12 C 22 17.566406 17.566406 22 12 22 C 6.433594 22 2 17.566406 2 12 C 2 6.433594 6.433594 2 12 2 Z M 8 8 C 6.894531 8 6 8.894531 6 10 C 6 11.105469 6.894531 12 8 12 C 9.105469 12 10 11.105469 10 10 C 10 8.894531 9.105469 8 8 8 Z M 16 9 C 14.101563 9 13 11 13 11 L 19 11 C 19 11 17.898438 9 16 9 Z M 17.0625 13.65625 C 17.0625 13.65625 15.90625 17 12 17 C 9.808594 17 8.75 15.75 8.75 15.75 L 7.25 17.0625 C 7.25 17.0625 8.988281 19 12 19 C 17.09375 19 18.9375 14.34375 18.9375 14.34375 Z "/>
</g>
</svg>